<svg width="177" height="177" viewBox="0 0 177 177" fill="none" xmlns="http://www.w3.org/2000/svg">
<path d="M88.2927 58.0781C97.4357 58.0781 104.848 50.6488 104.848 41.4844C104.848 32.3199 97.4357 24.8906 88.2927 24.8906C79.1497 24.8906 71.7378 32.3199 71.7378 41.4844C71.7378 50.6488 79.1497 58.0781 88.2927 58.0781Z" fill="white"/>
<path fill-rule="evenodd" clip-rule="evenodd" d="M68.4267 82.9688H82.7744V68.5874C70.1803 66.0249 60.7012 54.8642 60.7012 41.4844C60.7012 28.1045 70.1803 16.9438 82.7744 14.3813V0H63.4604C63.4604 12.2193 53.5779 22.125 41.3872 22.125C29.1965 22.125 19.314 12.2193 19.314 0H0V19.3594C12.1907 19.3594 22.0732 29.2651 22.0732 41.4844C22.0732 53.7037 12.1907 63.6094 0 63.6094V82.9688H14.3477C16.9041 70.3451 28.0387 60.8438 41.3872 60.8438C54.7357 60.8438 65.8703 70.3451 68.4267 82.9688Z" fill="white"/>
<path d="M118.643 88.5C118.643 97.6645 126.055 105.094 135.198 105.094C144.341 105.094 151.753 97.6645 151.753 88.5C151.753 79.3355 144.341 71.9062 135.198 71.9062C126.055 71.9062 118.643 79.3355 118.643 88.5Z" fill="white"/>
<path fill-rule="evenodd" clip-rule="evenodd" d="M93.8109 68.5874V82.9688H108.159C110.715 70.3451 121.85 60.8438 135.198 60.8438C148.547 60.8438 159.681 70.3451 162.238 82.9688H176.585V63.6094C164.395 63.6094 154.512 53.7037 154.512 41.4844C154.512 29.2651 164.395 19.3594 176.585 19.3594V0H157.271C157.271 12.2193 147.389 22.125 135.198 22.125C123.007 22.125 113.125 12.2193 113.125 0H93.8109V14.3813C106.405 16.9438 115.884 28.1045 115.884 41.4844C115.884 54.8642 106.405 66.0249 93.8109 68.5874Z" fill="white"/>
<path fill-rule="evenodd" clip-rule="evenodd" d="M93.8109 108.413V94.0312H108.159C110.702 106.589 121.734 116.058 134.991 116.155C135.06 116.156 135.129 116.156 135.198 116.156C135.267 116.156 135.336 116.156 135.405 116.155C148.662 116.058 159.694 106.589 162.238 94.0312H176.585V113.391C164.395 113.391 154.512 123.296 154.512 135.516C154.512 147.735 164.395 157.641 176.585 157.641V177H157.271C157.271 164.781 147.389 154.875 135.198 154.875C123.007 154.875 113.125 164.781 113.125 177H93.8109V162.619C106.34 160.069 115.786 149.011 115.883 135.723C115.884 135.654 115.884 135.585 115.884 135.516C115.884 135.446 115.884 135.377 115.883 135.308C115.786 122.02 106.34 110.962 93.8109 108.413Z" fill="white"/>
<path fill-rule="evenodd" clip-rule="evenodd" d="M82.7744 108.413C70.2456 110.962 60.7995 122.02 60.702 135.308C60.7015 135.377 60.7012 135.446 60.7012 135.516C60.7012 135.585 60.7015 135.654 60.7022 135.723C60.7995 149.011 70.2456 160.069 82.7744 162.619V177H63.4604C63.4604 164.781 53.5779 154.875 41.3872 154.875C29.1965 154.875 19.314 164.781 19.314 177H0L0 157.641C12.1907 157.641 22.0732 147.735 22.0732 135.516C22.0732 123.296 12.1907 113.391 0 113.391L0 94.0312H14.3477C16.8909 106.589 27.9235 116.058 41.1799 116.155C41.249 116.156 41.318 116.156 41.3872 116.156C41.4563 116.156 41.5254 116.156 41.5944 116.155C54.8508 116.058 65.8835 106.589 68.4267 94.0312H82.7744V108.413Z" fill="white"/>
<path d="M57.942 88.5C57.942 79.3355 50.5302 71.9062 41.3872 71.9062C32.2441 71.9062 24.8323 79.3355 24.8323 88.5C24.8323 97.6645 32.2441 105.094 41.3872 105.094C50.5302 105.094 57.942 97.6645 57.942 88.5Z" fill="white"/>
<path d="M88.2927 118.922C79.1497 118.922 71.7378 126.351 71.7378 135.516C71.7378 144.68 79.1497 152.109 88.2927 152.109C97.4357 152.109 104.848 144.68 104.848 135.516C104.848 126.351 97.4357 118.922 88.2927 118.922Z" fill="white"/>
</svg>
