<svg width="1920" height="770" viewBox="0 0 1920 770" fill="none" xmlns="http://www.w3.org/2000/svg">
<path d="M0 73.7274C0 73.7274 485 -92.1592 1100 73.7274C1715 239.614 1920 73.7274 1920 73.7274V770C1006 770 910 770 0 770V73.7274Z" fill="#191B28"/>
<path fill-rule="evenodd" clip-rule="evenodd" d="M1914.19 770C1791.31 700.328 1643.08 644.091 1469.02 614.519C975.243 530.629 861.256 236.175 844.42 21.3523C926.24 32.9633 1011.78 49.9321 1100 73.7274C1715 239.614 1920 73.7274 1920 73.7274V770H1914.19Z" fill="#1C1F30"/>
<path fill-rule="evenodd" clip-rule="evenodd" d="M1920 340.504C1913.25 339.561 1906.52 338.773 1899.83 338.144C1502.33 300.795 1138.41 210.983 1030.37 56.2018C1053.38 61.5814 1076.59 67.4141 1100 73.7274C1715 239.614 1920 73.7274 1920 73.7274V340.504Z" fill="#222434"/>
<path d="M326.657 530.833C115.757 494.958 8.98571 351.458 0 278V770H555C555 691.417 524.763 564.532 326.657 530.833Z" fill="#1C1F30"/>
<path d="M169.701 631.707C95.1592 624.702 8.98726 563.415 0 490V770H498C498 691.463 342.573 647.954 169.701 631.707Z" fill="#222434"/>
</svg>
