<svg width="670" height="152" viewBox="0 0 670 152" fill="none" xmlns="http://www.w3.org/2000/svg">
<path fill-rule="evenodd" clip-rule="evenodd" d="M614.349 65.2537C615.693 68.5873 616.333 70.6547 616.944 74.0909L545.608 102.98C552.769 113.07 565.236 116.165 578.372 110.845C587.518 107.141 591.998 102.419 594.964 93.462L619.075 83.6975C620.582 105.19 605.691 123.435 587.067 130.977C558.965 142.358 528.717 130.178 517.833 103.177C506.882 76.0089 519.666 45.8207 546.771 34.844C574.208 23.7327 602.793 36.5855 614.349 65.2537ZM588.131 63.0749C580.535 52.3857 568.935 49.5218 555.3 55.0438C542.163 60.3637 535.804 70.5005 537.082 83.7487L588.131 63.0749Z" fill="white"/>
<path fill-rule="evenodd" clip-rule="evenodd" d="M523.388 133.578V112.186H476.221L519.981 55.3801V33.988H447.705V55.3801H491.465L447.705 112.186V133.578H523.388Z" fill="white"/>
<path fill-rule="evenodd" clip-rule="evenodd" d="M395.433 55.7396H409.781V33.988H395.433V0.731323H371.58V33.988H351.646V55.7396H371.58V111.429C371.58 123.662 381.456 133.578 393.663 133.578H417.355V111.453H400.965C397.91 111.453 395.433 108.987 395.433 105.907V55.7396Z" fill="white"/>
<path fill-rule="evenodd" clip-rule="evenodd" d="M428.384 25.1243C421.81 25.1243 416.457 19.7721 416.457 13.1699C416.457 6.58106 421.797 1.21545 428.384 1.21545C434.957 1.21545 440.31 6.56763 440.31 13.1699C440.31 19.7587 434.971 25.1243 428.384 25.1243ZM440.131 133.578H416.278V33.9881H440.131V133.578Z" fill="white"/>
<path fill-rule="evenodd" clip-rule="evenodd" d="M352.997 133.578H331.117V120.635C321.612 131.421 312.107 135.915 298.118 135.915C269.064 135.915 248.081 114.164 248.081 84.1427C248.081 53.7623 269.243 31.6511 298.656 31.6511C313.004 31.6511 322.867 36.325 331.117 47.2907V33.9881H352.997V133.578ZM330.4 84.5022C330.4 66.3459 318.204 53.5825 301.167 53.5825C284.129 53.5825 272.113 66.5257 272.113 84.682C272.113 102.119 284.129 113.984 301.525 113.984C319.639 113.984 330.4 101.041 330.4 84.5022Z" fill="white"/>
<path fill-rule="evenodd" clip-rule="evenodd" d="M244.761 65.6549C246.105 68.9884 246.745 71.0558 247.356 74.492L176.02 103.382C183.182 113.471 195.648 116.566 208.785 111.246C217.93 107.542 222.41 102.82 225.376 93.8631L249.488 84.0986C250.994 105.591 236.104 123.836 217.48 131.378C189.378 142.759 159.129 130.58 148.245 103.578C137.294 76.41 150.078 46.2218 177.183 35.2451C204.62 24.1338 233.206 36.9866 244.761 65.6549ZM218.544 63.476C210.947 52.7868 199.347 49.9229 185.712 55.4449C172.575 60.7649 166.216 70.9016 167.494 84.1498L218.544 63.476Z" fill="white"/>
<path fill-rule="evenodd" clip-rule="evenodd" d="M153.338 54.26V31.25H146.213C135.991 31.25 130.969 34.1262 124.692 43.2943V33.587H102.812V133.177H126.665V77.8093C126.665 62.3495 133.248 54.7634 153.338 54.26Z" fill="white"/>
<path fill-rule="evenodd" clip-rule="evenodd" d="M669.299 54.26V31.25H662.174C651.951 31.25 646.929 34.1262 640.652 43.2943V33.587H618.772V133.177H642.625V77.8093C642.625 62.3495 649.209 54.7634 669.299 54.26Z" fill="white"/>
<path fill-rule="evenodd" clip-rule="evenodd" d="M102.991 100.861H76.0894C70.171 110.029 63.3559 113.984 53.492 113.984C36.9923 113.984 24.6175 101.041 24.6175 83.6034C24.6175 66.1661 36.4542 53.5825 52.9539 53.5825C63.7146 53.5825 71.2471 58.0767 76.0894 67.2447H102.991C95.2792 44.4145 75.5513 31.6511 52.9539 31.6511C23.5414 31.6511 0.585327 54.4814 0.585327 83.7832C0.585327 112.725 24.2588 135.915 53.6713 135.915C76.8067 135.915 94.7412 123.152 102.991 100.861Z" fill="white"/>
</svg>
