<svg width="27" height="28" viewBox="0 0 27 28" fill="none" xmlns="http://www.w3.org/2000/svg">
<path fill-rule="evenodd" clip-rule="evenodd" d="M17.0058 9.324L15.7351 9.32487C14.7386 9.32487 14.5454 9.81575 14.5454 10.5359V12.1249H16.9222L16.6126 14.6143H14.5454V21H12.0673V14.6143H9.99506V12.1249H12.0673V10.29C12.0673 8.15938 13.322 7 15.1537 7C16.0312 7 16.7856 7.06738 17.0058 7.098V9.324ZM13.5 0C6.04462 0 0 6.26762 0 14C0 21.7315 6.04462 28 13.5 28C20.9562 28 27 21.7315 27 14C27 6.26762 20.9562 0 13.5 0Z" fill="#61657D"/>
</svg>
