<svg width="27" height="28" viewBox="0 0 27 28" fill="none" xmlns="http://www.w3.org/2000/svg">
<g clip-path="url(#clip0)">
<path fill-rule="evenodd" clip-rule="evenodd" d="M0 14C0 21.7308 6.0453 28 13.5 28C20.9547 28 27 21.7308 27 14C27 6.2692 20.9547 0 13.5 0C6.0453 0 0 6.2692 0 14ZM17.2233 6.2216C16.2513 6.174 15.9597 6.1656 13.5 6.1656C11.0403 6.1656 10.7487 6.174 9.77672 6.2216C8.87762 6.2664 8.38892 6.4204 8.06492 6.552C7.63562 6.7256 7.32782 6.9328 7.00652 7.266C6.68522 7.5992 6.48542 7.9184 6.31802 8.3636C6.19112 8.6996 6.03992 9.2064 5.99942 10.1388C5.95352 11.1468 5.94542 11.4492 5.94542 14C5.94542 16.5508 5.95622 16.8532 5.99942 17.8612C6.04262 18.7936 6.19112 19.3004 6.31802 19.6364C6.48542 20.0816 6.68522 20.4008 7.00652 20.734C7.32782 21.0672 7.63562 21.2744 8.06492 21.448C8.38892 21.5796 8.87762 21.7364 9.77672 21.7784C10.7487 21.826 11.0403 21.8344 13.5 21.8344C15.9597 21.8344 16.2513 21.8232 17.2233 21.7784C18.1224 21.7336 18.6111 21.5796 18.9351 21.448C19.3644 21.2744 19.6722 21.0672 19.9935 20.734C20.3148 20.4008 20.5146 20.0816 20.682 19.6364C20.8089 19.3004 20.9601 18.7936 21.0006 17.8612C21.0465 16.8532 21.0546 16.5508 21.0546 14C21.0546 11.4492 21.0438 11.1468 21.0006 10.1388C20.9574 9.2064 20.8089 8.6996 20.682 8.3636C20.5146 7.9184 20.3148 7.5992 19.9935 7.266C19.6722 6.9328 19.3644 6.7256 18.9351 6.552C18.6111 6.4204 18.1224 6.2636 17.2233 6.2216ZM9.70112 4.5024C10.6839 4.4548 10.9971 4.4436 13.5 4.4436C16.0029 4.4436 16.3161 4.4548 17.2962 4.4996C18.279 4.5472 18.9486 4.7096 19.5345 4.9448C20.142 5.1912 20.655 5.516 21.168 6.048C21.681 6.5772 21.9969 7.112 22.2318 7.7364C22.4613 8.3468 22.6152 9.0412 22.6611 10.0576C22.707 11.0768 22.7178 11.4016 22.7178 13.9972C22.7178 16.5928 22.707 16.9176 22.6611 17.9368C22.6152 18.956 22.4586 19.6504 22.2318 20.258C21.9942 20.888 21.681 21.42 21.168 21.952C20.6577 22.484 20.142 22.8116 19.5399 23.0552C18.9513 23.2932 18.2817 23.4528 17.3016 23.5004C16.3188 23.548 16.0056 23.5592 13.5027 23.5592C10.9998 23.5592 10.6866 23.548 9.70382 23.5004C8.72102 23.4528 8.05142 23.2904 7.46552 23.0552C6.85802 22.8088 6.34502 22.484 5.83202 21.952C5.31902 21.4228 5.00312 20.888 4.76822 20.2636C4.53872 19.6532 4.38482 18.9588 4.33892 17.9424C4.29302 16.9232 4.28222 16.5984 4.28222 14.0028C4.28222 11.4072 4.29302 11.0824 4.33892 10.0632C4.38482 9.044 4.54142 8.3496 4.76822 7.742C5.00582 7.112 5.31902 6.58 5.83202 6.048C6.34232 5.516 6.85802 5.1884 7.46282 4.9476C8.05142 4.7096 8.72102 4.55 9.70112 4.5024ZM8.7669 14C8.7669 11.2896 10.8864 9.09162 13.5 9.09162C16.1136 9.09162 18.2331 11.2896 18.2331 14C18.2331 16.7104 16.1136 18.9084 13.5 18.9084C10.8864 18.9084 8.7669 16.7104 8.7669 14ZM10.4274 14C10.4274 15.7612 11.8044 17.1864 13.5 17.1864C15.1956 17.1864 16.5726 15.7612 16.5726 14C16.5726 12.2388 15.1956 10.8136 13.5 10.8136C11.8044 10.8136 10.4274 12.2388 10.4274 14ZM18.4194 10.0464C19.0308 10.0464 19.5264 9.53244 19.5264 8.89842C19.5264 8.2644 19.0308 7.75042 18.4194 7.75042C17.808 7.75042 17.3124 8.2644 17.3124 8.89842C17.3124 9.53244 17.808 10.0464 18.4194 10.0464Z" fill="#ffffff"/>
</g>
<defs>
<clipPath id="clip0">
<rect width="27" height="28" fill="white"/>
</clipPath>
</defs>
</svg>
