<svg width="85" height="85" viewBox="0 0 85 85" fill="none" xmlns="http://www.w3.org/2000/svg">
<path d="M42.5 84.0156C65.5406 84.0156 84.2188 65.3375 84.2188 42.2969C84.2188 19.2562 65.5406 0.578125 42.5 0.578125C19.4594 0.578125 0.78125 19.2562 0.78125 42.2969C0.78125 65.3375 19.4594 84.0156 42.5 84.0156Z" fill="#AFD871"/>
<path d="M43 32.0938C45.3731 32.0938 47.2969 30.093 47.2969 27.625C47.2969 25.157 45.3731 23.1562 43 23.1562C40.6269 23.1562 38.7031 25.157 38.7031 27.625C38.7031 30.093 40.6269 32.0938 43 32.0938Z" fill="white"/>
<path d="M45.625 32.7814H40.375C38.9807 32.7221 37.62 33.2187 36.5916 34.162C35.5633 35.1054 34.9515 36.4184 34.8906 37.8126V44.6095C34.8974 45.4112 35.1518 46.1913 35.6188 46.843C36.0859 47.4947 36.7429 47.9861 37.5 48.2501V57.3126C37.4692 58.1186 37.7512 58.9052 38.2871 59.508C38.8229 60.1108 39.571 60.4831 40.375 60.547H45.625C46.429 60.4831 47.1771 60.1108 47.7129 59.508C48.2487 58.9052 48.5308 58.1186 48.5 57.3126V48.2501C49.2521 47.9879 49.9056 47.5012 50.3722 46.8558C50.8389 46.2103 51.0962 45.4371 51.1094 44.6407V37.8126C51.0485 36.4184 50.4367 35.1054 49.4084 34.162C48.38 33.2187 47.0192 32.7221 45.625 32.7814Z" fill="white"/>
<path d="M27.3749 33.3438C27.8946 33.3625 28.408 33.2254 28.8493 32.9503C29.2905 32.6752 29.6395 32.2745 29.8515 31.7996C30.0634 31.3248 30.1287 30.7974 30.0388 30.2852C29.949 29.7731 29.7082 29.2994 29.3472 28.925C28.9863 28.5507 28.5218 28.2927 28.0132 28.1842C27.5047 28.0756 26.9753 28.1215 26.493 28.316C26.0107 28.5104 25.5975 28.8445 25.3064 29.2754C25.0154 29.7063 24.8597 30.2144 24.8593 30.7344C24.8531 31.0709 24.9133 31.4054 25.0363 31.7187C25.1594 32.0319 25.343 32.3179 25.5766 32.5602C25.8102 32.8025 26.0893 32.9964 26.3978 33.1309C26.7064 33.2653 27.0384 33.3377 27.3749 33.3438Z" fill="white"/>
<path d="M29.25 34.5937H25.5C24.3968 34.5426 23.3182 34.9293 22.4988 35.6697C21.6794 36.4101 21.1856 37.4442 21.125 38.5469V43.2344C21.1341 43.92 21.3685 44.5837 21.792 45.123C22.2156 45.6623 22.8048 46.0474 23.4688 46.2187V52.1718C23.4253 52.8433 23.6461 53.5052 24.084 54.0161C24.522 54.527 25.1423 54.8465 25.8125 54.9062H29.0781C29.4171 54.8806 29.7476 54.7882 30.0507 54.6343C30.3538 54.4804 30.6234 54.2681 30.8442 54.0096C31.0649 53.7511 31.2323 53.4516 31.3368 53.1281C31.4414 52.8047 31.4809 52.4637 31.4531 52.125V46.125C32.0775 45.9251 32.6232 45.5338 33.013 45.0066C33.4028 44.4795 33.6169 43.8431 33.625 43.1875V38.5C33.5525 37.4057 33.0537 36.3834 32.2356 35.653C31.4175 34.9226 30.3455 34.5422 29.25 34.5937Z" fill="white"/>
<path d="M58.625 33.3438C59.1446 33.3625 59.658 33.2254 60.0993 32.9503C60.5406 32.6752 60.8895 32.2745 61.1015 31.7996C61.3134 31.3248 61.3787 30.7974 61.2888 30.2852C61.199 29.7731 60.9582 29.2994 60.5973 28.925C60.2363 28.5507 59.7718 28.2927 59.2632 28.1842C58.7547 28.0756 58.2253 28.1215 57.743 28.316C57.2607 28.5104 56.8475 28.8445 56.5564 29.2754C56.2654 29.7063 56.1097 30.2144 56.1093 30.7344C56.1031 31.0709 56.1633 31.4054 56.2863 31.7187C56.4094 32.0319 56.593 32.3179 56.8266 32.5602C57.0602 32.8025 57.3393 32.9964 57.6478 33.1309C57.9564 33.2653 58.2884 33.3377 58.625 33.3438Z" fill="white"/>
<path d="M60.5 34.5937H56.75C55.6468 34.5426 54.5682 34.9293 53.7488 35.6697C52.9294 36.4101 52.4356 37.4442 52.375 38.5469V43.2344C52.3841 43.92 52.6185 44.5837 53.042 45.123C53.4656 45.6623 54.0548 46.0474 54.7188 46.2187V52.1718C54.6753 52.8433 54.8961 53.5052 55.334 54.0161C55.772 54.527 56.3923 54.8465 57.0625 54.9062H60.2969C60.6358 54.8806 60.9663 54.7882 61.2694 54.6343C61.5725 54.4804 61.8422 54.2681 62.0629 54.0096C62.2837 53.7511 62.4511 53.4516 62.5556 53.1281C62.6601 52.8047 62.6996 52.4637 62.6719 52.125V46.125C63.3021 45.9305 63.8546 45.5416 64.2504 45.0139C64.6461 44.4863 64.8648 43.847 64.875 43.1875V38.5C64.8025 37.4057 64.3037 36.3834 63.4856 35.653C62.6675 34.9226 61.5955 34.5422 60.5 34.5937Z" fill="white"/>
</svg>
