<svg width="209" height="209" viewBox="0 0 209 209" fill="none" xmlns="http://www.w3.org/2000/svg">
<path fill-rule="evenodd" clip-rule="evenodd" d="M0.40625 172.437V208.594H36.5627C43.0051 176.856 71.0645 152.969 104.703 152.969C138.342 152.969 166.401 176.856 172.844 208.594H209V159.922C178.279 159.922 153.375 135.018 153.375 104.297C153.375 73.576 178.279 48.6719 209 48.6719V0H160.328C160.328 30.7208 135.424 55.625 104.703 55.625C73.9823 55.625 49.0781 30.7208 49.0781 0H0.40625V36.1565C32.1437 42.5989 56.0312 70.6582 56.0312 104.297C56.0312 137.936 32.1437 165.995 0.40625 172.437Z" fill="#D08E89"/>
</svg>
