<svg width="85" height="85" viewBox="0 0 85 85" fill="none" xmlns="http://www.w3.org/2000/svg">
<path d="M84.0156 42.5C84.0156 19.4594 65.3375 0.78125 42.2969 0.78125C19.2562 0.78125 0.578125 19.4594 0.578125 42.5C0.578125 65.5406 19.2562 84.2188 42.2969 84.2188C65.3375 84.2188 84.0156 65.5406 84.0156 42.5Z" fill="#FFDC5F"/>
<path d="M22.7623 44.8703V44.8904H29.8976C30.0604 43.1243 31.5296 41.7384 33.3369 41.7384C35.1442 41.7384 36.6134 43.1243 36.7762 44.8904H47.416C47.5788 43.1243 49.048 41.7384 50.8553 41.7384C52.6626 41.7384 54.1318 43.1243 54.2946 44.8904H62.0304V44.8703C63.1089 43.9048 63.7927 42.5075 63.7927 40.9444V33.4059C63.7927 30.4972 61.4347 28.1382 58.525 28.1382H52.6118C51.882 24.1089 47.5855 21 42.3964 21C37.2072 21 32.9107 24.1089 32.1809 28.1401H26.2677C23.358 28.1401 21 30.4991 21 33.4078V40.9473C21 42.5084 21.6838 43.9077 22.7623 44.8703ZM42.3964 25.7907C44.695 25.7907 46.7695 26.8012 47.5807 28.142H37.213C38.0223 26.7983 40.0968 25.7907 42.3964 25.7907ZM62.0304 46.8049V54.7323C62.0304 57.641 59.6724 60 56.7628 60H28.03C25.1203 60 22.7623 57.641 22.7623 54.7323V46.8059H29.8976C30.0604 48.572 31.5296 49.9598 33.3369 49.9598C35.1442 49.9598 36.6134 48.572 36.7762 46.8059H47.416C47.5788 48.572 49.048 49.9598 50.8553 49.9598C52.6626 49.9598 54.1318 48.572 54.2946 46.8059H62.0304V46.8049Z" fill="white"/>
</svg>
