<svg width="85" height="85" viewBox="0 0 85 85" fill="none" xmlns="http://www.w3.org/2000/svg">
<path d="M0.984375 42.5C0.984375 65.5406 19.6625 84.2188 42.7031 84.2188C65.7438 84.2188 84.4219 65.5406 84.4219 42.5C84.4219 19.4594 65.7438 0.78125 42.7031 0.78125C19.6625 0.78125 0.984375 19.4594 0.984375 42.5Z" fill="#D08E89"/>
<g clip-path="url(#clip0)">
<path d="M36.7353 47.2646C33.1083 43.6376 32.2893 40.0106 32.1045 38.5574C32.0529 38.1556 32.1912 37.7526 32.4786 37.4672L35.4138 34.5333C35.8456 34.1018 35.9222 33.4293 35.5986 32.9118L30.9252 25.6551C30.5672 25.082 29.832 24.8751 29.2277 25.1775L21.7253 28.7108C21.2366 28.9514 20.9491 29.4707 21.0046 30.0126C21.3977 33.7471 23.0258 42.9274 32.0475 51.9498C41.0693 60.9721 50.2482 62.5996 53.9847 62.9927C54.5266 63.0482 55.0459 62.7607 55.2865 62.272L58.8199 54.7696C59.1211 54.1666 58.9156 53.4334 58.3449 53.0747L51.0882 48.4027C50.5709 48.0787 49.8984 48.1548 49.4666 48.5861L46.5328 51.5213C46.2473 51.8087 45.8443 51.947 45.4425 51.8954C43.9894 51.7106 40.3623 50.8917 36.7353 47.2646Z" fill="white"/>
<path d="M51.1377 45.3104C50.414 45.3104 49.8274 44.7237 49.8274 44C49.8212 38.575 45.4249 34.1786 39.9998 34.1724C39.2761 34.1724 38.6895 33.5858 38.6895 32.8621C38.6895 32.1384 39.2761 31.5518 39.9998 31.5518C46.8716 31.5593 52.4405 37.1282 52.4481 44C52.4481 44.7237 51.8614 45.3104 51.1377 45.3104Z" fill="white"/>
<path d="M57.6895 45.3104C56.9658 45.3104 56.3791 44.7237 56.3791 44C56.369 34.9582 49.0417 27.6308 39.9998 27.6207C39.2761 27.6207 38.6895 27.034 38.6895 26.3103C38.6895 25.5867 39.2761 25 39.9998 25C50.4884 25.0116 58.9883 33.5114 58.9998 44C58.9998 44.3475 58.8618 44.6808 58.616 44.9266C58.3703 45.1723 58.037 45.3104 57.6895 45.3104Z" fill="white"/>
</g>
<defs>
<clipPath id="clip0">
<rect width="38" height="38" fill="white" transform="translate(21 25)"/>
</clipPath>
</defs>
</svg>
