<svg width="85" height="85" viewBox="0 0 85 85" fill="none" xmlns="http://www.w3.org/2000/svg">
<path d="M42.5 0.984375C19.4594 0.984375 0.78125 19.6625 0.78125 42.7031C0.78125 65.7438 19.4594 84.4219 42.5 84.4219C65.5406 84.4219 84.2188 65.7438 84.2188 42.7031C84.2188 19.6625 65.5406 0.984375 42.5 0.984375Z" fill="#9BA4E3"/>
<g clip-path="url(#clip0)">
<path d="M44.3502 20C41.3772 20 38.8698 22.5074 38.8698 25.4805C38.8698 28.4535 41.3772 30.9609 44.3502 30.9609C47.3232 30.9609 49.7408 28.4535 49.7408 25.4805C49.7408 22.5074 47.3232 20 44.3502 20Z" fill="white"/>
<path d="M50.3331 30.9609C48.852 32.6032 46.7307 33.6562 44.3502 33.6562C41.9697 33.6562 39.7586 32.6032 38.2775 30.9609C36.9845 32.3948 36.1744 34.2731 36.1744 36.3516V37.6992C36.1744 38.4441 36.7772 39.0469 37.5221 39.0469H51.0885C51.8334 39.0469 52.4361 38.4441 52.4361 37.6992V36.3516C52.4361 34.2731 51.6261 32.3948 50.3331 30.9609Z" fill="white"/>
<path d="M33.0225 61.3645L26.1547 47.5955C25.4916 46.2659 23.8777 45.7237 22.5464 46.3833L20.7515 47.2724C20.0831 47.6039 19.8112 48.4161 20.1447 49.0833L28.2307 65.2552C28.5632 65.9221 29.372 66.1875 30.035 65.8605L31.8069 64.9827C33.1433 64.3207 33.688 62.6991 33.0225 61.3645Z" fill="white"/>
<path d="M64.8976 42.2543C63.7924 41.4457 62.2561 41.6074 61.3398 42.6047L53.9726 51.6609C53.4605 52.2 52.4902 52.5234 51.9781 52.5234H45.6979C44.9431 52.5234 44.3503 51.9305 44.3503 51.1757C44.3503 50.421 44.9431 49.8281 45.6979 49.8281C47.5029 49.8281 49.5012 49.8281 51.0885 49.8281C52.5709 49.8281 53.7838 48.6152 53.7838 47.1328C53.7838 45.6504 52.5709 44.4375 51.0885 44.4375C44.7594 44.4375 50.7965 44.4375 44.0268 44.4375C43.3552 44.4375 43.0202 44.0115 42.4905 43.5479C40.4053 41.6715 37.2842 40.7675 34.1244 41.4999C32.3699 41.9066 31.1867 42.6154 29.9868 43.5657L29.9468 43.5333L27.9976 45.2488L35.658 60.6093H37.9264H51.0885C53.6221 60.6093 56.048 59.3964 57.5574 57.375L65.4635 46.0547C66.353 44.8686 66.1104 43.1438 64.8976 42.2543Z" fill="white"/>
</g>
<defs>
<clipPath id="clip0">
<rect width="46" height="46" fill="white" transform="translate(20 20)"/>
</clipPath>
</defs>
</svg>
