<svg width="209" height="209" viewBox="0 0 209 209" fill="none" xmlns="http://www.w3.org/2000/svg">
<path fill-rule="evenodd" clip-rule="evenodd" d="M0.40625 36.5627V0.40625H36.5627C42.9912 32.0751 70.9435 55.9281 104.485 56.0309C104.558 56.0311 104.631 56.0312 104.703 56.0312C104.776 56.0312 104.848 56.0311 104.921 56.0308C138.463 55.9281 166.415 32.0751 172.844 0.40625H209V49.0781C178.279 49.0781 153.375 73.9823 153.375 104.703C153.375 135.424 178.279 160.328 209 160.328V209H160.328C160.328 178.279 135.424 153.375 104.703 153.375C73.9823 153.375 49.0781 178.279 49.0781 209H0.40625V172.844C32.0751 166.415 55.9281 138.463 56.0309 104.921C56.0311 104.848 56.0312 104.776 56.0312 104.703C56.0312 104.631 56.0311 104.558 56.0308 104.485C55.9281 70.9434 32.0751 42.9912 0.40625 36.5627Z" fill="#9BA4E3"/>
</svg>
