<svg width="209" height="209" viewBox="0 0 209 209" fill="none" xmlns="http://www.w3.org/2000/svg">
<path fill-rule="evenodd" clip-rule="evenodd" d="M172.437 208.594H208.594V172.437C176.856 165.995 152.969 137.936 152.969 104.297C152.969 70.6582 176.856 42.5989 208.594 36.1565V0H159.922C159.922 30.7208 135.018 55.625 104.297 55.625C73.576 55.625 48.6719 30.7208 48.6719 0H0V48.6719C30.7208 48.6719 55.625 73.576 55.625 104.297C55.625 135.018 30.7208 159.922 0 159.922V208.594H36.1565C42.5989 176.856 70.6582 152.969 104.297 152.969C137.936 152.969 165.995 176.856 172.437 208.594Z" fill="#AFD871"/>
</svg>
