<svg width="209" height="209" viewBox="0 0 209 209" fill="none" xmlns="http://www.w3.org/2000/svg">
<path fill-rule="evenodd" clip-rule="evenodd" d="M208.594 36.5627C176.925 42.9912 153.072 70.9435 152.969 104.485C152.969 104.558 152.969 104.631 152.969 104.703C152.969 104.776 152.969 104.848 152.969 104.921C153.072 138.463 176.925 166.415 208.594 172.844V209H159.922C159.922 178.279 135.018 153.375 104.297 153.375C73.576 153.375 48.6719 178.279 48.6719 209H0L0 160.328C30.7208 160.328 55.625 135.424 55.625 104.703C55.625 73.9823 30.7208 49.0781 0 49.0781L0 0.40625H36.1565C42.5849 32.0751 70.5372 55.9281 104.079 56.0309C104.152 56.0311 104.224 56.0312 104.297 56.0312C104.369 56.0312 104.442 56.0311 104.515 56.0308C138.057 55.9281 166.009 32.0751 172.437 0.40625H208.594V36.5627Z" fill="#FFDC5F"/>
</svg>
