<svg width="445" height="445" viewBox="0 0 445 445" fill="none" xmlns="http://www.w3.org/2000/svg">
<path fill-rule="evenodd" clip-rule="evenodd" d="M172.437 208.594H208.594V172.437C176.856 165.995 152.969 137.936 152.969 104.297C152.969 70.6582 176.856 42.5989 208.594 36.1565V0H159.922C159.922 30.7208 135.018 55.625 104.297 55.625C73.576 55.625 48.6719 30.7208 48.6719 0H0V48.6719C30.7208 48.6719 55.625 73.576 55.625 104.297C55.625 135.018 30.7208 159.922 0 159.922V208.594H36.1565C42.5989 176.856 70.6582 152.969 104.297 152.969C137.936 152.969 165.995 176.856 172.437 208.594Z" fill="#AFD871"/>
<path fill-rule="evenodd" clip-rule="evenodd" d="M236.406 172.437V208.594H272.563C279.005 176.856 307.064 152.969 340.703 152.969C374.342 152.969 402.401 176.856 408.844 208.594H445V159.922C414.279 159.922 389.375 135.018 389.375 104.297C389.375 73.576 414.279 48.6719 445 48.6719V0H396.328C396.328 30.7208 371.424 55.625 340.703 55.625C309.982 55.625 285.078 30.7208 285.078 0H236.406V36.1565C268.144 42.5989 292.031 70.6582 292.031 104.297C292.031 137.936 268.144 165.995 236.406 172.437Z" fill="#D08E89"/>
<path fill-rule="evenodd" clip-rule="evenodd" d="M236.406 272.563V236.406H272.563C278.991 268.075 306.943 291.928 340.485 292.031C340.558 292.031 340.631 292.031 340.703 292.031C340.776 292.031 340.848 292.031 340.921 292.031C374.463 291.928 402.415 268.075 408.844 236.406H445V285.078C414.279 285.078 389.375 309.982 389.375 340.703C389.375 371.424 414.279 396.328 445 396.328V445H396.328C396.328 414.279 371.424 389.375 340.703 389.375C309.982 389.375 285.078 414.279 285.078 445H236.406V408.844C268.075 402.415 291.928 374.463 292.031 340.921C292.031 340.848 292.031 340.776 292.031 340.703C292.031 340.631 292.031 340.558 292.031 340.485C291.928 306.943 268.075 278.991 236.406 272.563Z" fill="#9BA4E3"/>
<path fill-rule="evenodd" clip-rule="evenodd" d="M208.594 272.563C176.925 278.991 153.072 306.943 152.969 340.485C152.969 340.558 152.969 340.631 152.969 340.703C152.969 340.776 152.969 340.848 152.969 340.921C153.072 374.463 176.925 402.415 208.594 408.844V445H159.922C159.922 414.279 135.018 389.375 104.297 389.375C73.576 389.375 48.6719 414.279 48.6719 445H0L0 396.328C30.7208 396.328 55.625 371.424 55.625 340.703C55.625 309.982 30.7208 285.078 0 285.078L0 236.406H36.1565C42.5849 268.075 70.5372 291.928 104.079 292.031C104.152 292.031 104.224 292.031 104.297 292.031C104.369 292.031 104.442 292.031 104.515 292.031C138.057 291.928 166.009 268.075 172.437 236.406H208.594V272.563Z" fill="#FFDC5F"/>
<path d="M146.016 222.5C146.016 199.459 127.338 180.781 104.297 180.781C81.2562 180.781 62.5781 199.459 62.5781 222.5C62.5781 245.541 81.2562 264.219 104.297 264.219C127.338 264.219 146.016 245.541 146.016 222.5Z" fill="#FFDC5F"/>
<path d="M84.7623 224.87V224.89H91.8976C92.0604 223.124 93.5296 221.738 95.3369 221.738C97.1442 221.738 98.6134 223.124 98.7762 224.89H109.416C109.579 223.124 111.048 221.738 112.855 221.738C114.663 221.738 116.132 223.124 116.295 224.89H124.03V224.87C125.109 223.905 125.793 222.507 125.793 220.944V213.406C125.793 210.497 123.435 208.138 120.525 208.138H114.612C113.882 204.109 109.586 201 104.396 201C99.2072 201 94.9107 204.109 94.1809 208.14H88.2677C85.358 208.14 83 210.499 83 213.408V220.947C83 222.508 83.6838 223.908 84.7623 224.87ZM104.396 205.791C106.695 205.791 108.769 206.801 109.581 208.142H99.213C100.022 206.798 102.097 205.791 104.396 205.791ZM124.03 226.805V234.732C124.03 237.641 121.672 240 118.763 240H90.03C87.1203 240 84.7623 237.641 84.7623 234.732V226.806H91.8976C92.0604 228.572 93.5296 229.96 95.3369 229.96C97.1442 229.96 98.6134 228.572 98.7762 226.806H109.416C109.579 228.572 111.048 229.96 112.855 229.96C114.663 229.96 116.132 228.572 116.295 226.806H124.03V226.805Z" fill="white"/>
<path d="M298.984 222.5C298.984 245.541 317.662 264.219 340.703 264.219C363.744 264.219 382.422 245.541 382.422 222.5C382.422 199.459 363.744 180.781 340.703 180.781C317.662 180.781 298.984 199.459 298.984 222.5Z" fill="#D08E89"/>
<g clip-path="url(#clip0)">
<path d="M334.735 227.265C331.108 223.638 330.289 220.011 330.105 218.557C330.053 218.156 330.191 217.753 330.479 217.467L333.414 214.533C333.846 214.102 333.922 213.429 333.599 212.912L328.925 205.655C328.567 205.082 327.832 204.875 327.228 205.177L319.725 208.711C319.237 208.951 318.949 209.471 319.005 210.013C319.398 213.747 321.026 222.927 330.048 231.95C339.069 240.972 348.248 242.6 351.985 242.993C352.527 243.048 353.046 242.761 353.287 242.272L356.82 234.77C357.121 234.167 356.916 233.433 356.345 233.075L349.088 228.403C348.571 228.079 347.898 228.155 347.467 228.586L344.533 231.521C344.247 231.809 343.844 231.947 343.443 231.895C341.989 231.711 338.362 230.892 334.735 227.265Z" fill="white"/>
<path d="M349.138 225.31C348.414 225.31 347.827 224.724 347.827 224C347.821 218.575 343.425 214.179 338 214.172C337.276 214.172 336.689 213.586 336.689 212.862C336.689 212.138 337.276 211.552 338 211.552C344.872 211.559 350.44 217.128 350.448 224C350.448 224.724 349.861 225.31 349.138 225.31Z" fill="white"/>
<path d="M355.689 225.31C354.966 225.31 354.379 224.724 354.379 224C354.369 214.958 347.042 207.631 338 207.621C337.276 207.621 336.689 207.034 336.689 206.31C336.689 205.587 337.276 205 338 205C348.488 205.012 356.988 213.511 357 224C357 224.348 356.862 224.681 356.616 224.927C356.37 225.172 356.037 225.31 355.689 225.31Z" fill="white"/>
</g>
<path d="M222.5 146.016C245.541 146.016 264.219 127.338 264.219 104.297C264.219 81.2562 245.541 62.5781 222.5 62.5781C199.459 62.5781 180.781 81.2562 180.781 104.297C180.781 127.338 199.459 146.016 222.5 146.016Z" fill="#AFD871"/>
<path d="M223 94.0938C225.373 94.0938 227.297 92.093 227.297 89.625C227.297 87.157 225.373 85.1562 223 85.1562C220.627 85.1562 218.703 87.157 218.703 89.625C218.703 92.093 220.627 94.0938 223 94.0938Z" fill="white"/>
<path d="M225.625 94.7814H220.375C218.981 94.7221 217.62 95.2187 216.592 96.162C215.563 97.1054 214.951 98.4184 214.891 99.8126V106.609C214.897 107.411 215.152 108.191 215.619 108.843C216.086 109.495 216.743 109.986 217.5 110.25V119.313C217.469 120.119 217.751 120.905 218.287 121.508C218.823 122.111 219.571 122.483 220.375 122.547H225.625C226.429 122.483 227.177 122.111 227.713 121.508C228.249 120.905 228.531 120.119 228.5 119.313V110.25C229.252 109.988 229.906 109.501 230.372 108.856C230.839 108.21 231.096 107.437 231.109 106.641V99.8126C231.049 98.4184 230.437 97.1054 229.408 96.162C228.38 95.2187 227.019 94.7221 225.625 94.7814Z" fill="white"/>
<path d="M207.375 95.3438C207.895 95.3625 208.408 95.2254 208.849 94.9503C209.291 94.6752 209.64 94.2745 209.851 93.7996C210.063 93.3248 210.129 92.7974 210.039 92.2852C209.949 91.7731 209.708 91.2994 209.347 90.925C208.986 90.5507 208.522 90.2927 208.013 90.1842C207.505 90.0756 206.975 90.1215 206.493 90.316C206.011 90.5104 205.598 90.8445 205.306 91.2754C205.015 91.7063 204.86 92.2144 204.859 92.7344C204.853 93.0709 204.913 93.4054 205.036 93.7187C205.159 94.0319 205.343 94.3179 205.577 94.5602C205.81 94.8025 206.089 94.9964 206.398 95.1309C206.706 95.2653 207.038 95.3377 207.375 95.3438Z" fill="white"/>
<path d="M209.25 96.5937H205.5C204.397 96.5426 203.318 96.9293 202.499 97.6697C201.679 98.4101 201.186 99.4442 201.125 100.547V105.234C201.134 105.92 201.368 106.584 201.792 107.123C202.216 107.662 202.805 108.047 203.469 108.219V114.172C203.425 114.843 203.646 115.505 204.084 116.016C204.522 116.527 205.142 116.846 205.812 116.906H209.078C209.417 116.881 209.748 116.788 210.051 116.634C210.354 116.48 210.623 116.268 210.844 116.01C211.065 115.751 211.232 115.452 211.337 115.128C211.441 114.805 211.481 114.464 211.453 114.125V108.125C212.078 107.925 212.623 107.534 213.013 107.007C213.403 106.479 213.617 105.843 213.625 105.187V100.5C213.553 99.4057 213.054 98.3834 212.236 97.653C211.418 96.9226 210.346 96.5422 209.25 96.5937Z" fill="white"/>
<path d="M238.625 95.3438C239.145 95.3625 239.658 95.2254 240.099 94.9503C240.541 94.6752 240.89 94.2745 241.101 93.7996C241.313 93.3248 241.379 92.7974 241.289 92.2852C241.199 91.7731 240.958 91.2994 240.597 90.925C240.236 90.5507 239.772 90.2927 239.263 90.1842C238.755 90.0756 238.225 90.1215 237.743 90.316C237.261 90.5104 236.848 90.8445 236.556 91.2754C236.265 91.7063 236.11 92.2144 236.109 92.7344C236.103 93.0709 236.163 93.4054 236.286 93.7187C236.409 94.0319 236.593 94.3179 236.827 94.5602C237.06 94.8025 237.339 94.9964 237.648 95.1309C237.956 95.2653 238.288 95.3377 238.625 95.3438Z" fill="white"/>
<path d="M240.5 96.5937H236.75C235.647 96.5426 234.568 96.9293 233.749 97.6697C232.929 98.4101 232.436 99.4442 232.375 100.547V105.234C232.384 105.92 232.618 106.584 233.042 107.123C233.466 107.662 234.055 108.047 234.719 108.219V114.172C234.675 114.843 234.896 115.505 235.334 116.016C235.772 116.527 236.392 116.846 237.062 116.906H240.297C240.636 116.881 240.966 116.788 241.269 116.634C241.573 116.48 241.842 116.268 242.063 116.01C242.284 115.751 242.451 115.452 242.556 115.128C242.66 114.805 242.7 114.464 242.672 114.125V108.125C243.302 107.93 243.855 107.542 244.25 107.014C244.646 106.486 244.865 105.847 244.875 105.187V100.5C244.803 99.4057 244.304 98.3834 243.486 97.653C242.668 96.9226 241.596 96.5422 240.5 96.5937Z" fill="white"/>
<path d="M222.5 298.984C199.459 298.984 180.781 317.662 180.781 340.703C180.781 363.744 199.459 382.422 222.5 382.422C245.541 382.422 264.219 363.744 264.219 340.703C264.219 317.662 245.541 298.984 222.5 298.984Z" fill="#9BA4E3"/>
<g clip-path="url(#clip1)">
<path d="M224.35 318C221.377 318 218.87 320.507 218.87 323.48C218.87 326.453 221.377 328.961 224.35 328.961C227.323 328.961 229.741 326.453 229.741 323.48C229.741 320.507 227.323 318 224.35 318Z" fill="white"/>
<path d="M230.333 328.961C228.852 330.603 226.731 331.656 224.35 331.656C221.97 331.656 219.759 330.603 218.277 328.961C216.984 330.395 216.174 332.273 216.174 334.352V335.699C216.174 336.444 216.777 337.047 217.522 337.047H231.088C231.833 337.047 232.436 336.444 232.436 335.699V334.352C232.436 332.273 231.626 330.395 230.333 328.961Z" fill="white"/>
<path d="M213.022 359.365L206.155 345.596C205.492 344.266 203.878 343.724 202.546 344.383L200.751 345.272C200.083 345.604 199.811 346.416 200.145 347.083L208.231 363.255C208.563 363.922 209.372 364.187 210.035 363.861L211.807 362.983C213.143 362.321 213.688 360.699 213.022 359.365Z" fill="white"/>
<path d="M244.898 340.254C243.792 339.446 242.256 339.607 241.34 340.605L233.973 349.661C233.46 350.2 232.49 350.523 231.978 350.523H225.698C224.943 350.523 224.35 349.931 224.35 349.176C224.35 348.421 224.943 347.828 225.698 347.828C227.503 347.828 229.501 347.828 231.089 347.828C232.571 347.828 233.784 346.615 233.784 345.133C233.784 343.65 232.571 342.437 231.089 342.437C224.759 342.437 230.797 342.437 224.027 342.437C223.355 342.437 223.02 342.012 222.49 341.548C220.405 339.672 217.284 338.768 214.124 339.5C212.37 339.907 211.187 340.615 209.987 341.566L209.947 341.533L207.998 343.249L215.658 358.609H217.926H231.089C233.622 358.609 236.048 357.396 237.557 355.375L245.464 344.055C246.353 342.869 246.11 341.144 244.898 340.254Z" fill="white"/>
</g>
<defs>
<clipPath id="clip0">
<rect width="38" height="38" fill="white" transform="translate(319 205)"/>
</clipPath>
<clipPath id="clip1">
<rect width="46" height="46" fill="white" transform="translate(200 318)"/>
</clipPath>
</defs>
</svg>
