<svg width="32" height="32" viewBox="0 0 32 32" fill="none" xmlns="http://www.w3.org/2000/svg">
<path d="M23.4499 20.9299C23.1712 20.6502 22.84 20.4283 22.4754 20.2769C22.1107 20.1255 21.7198 20.0475 21.3249 20.0475C20.9301 20.0475 20.5391 20.1255 20.1745 20.2769C19.8098 20.4283 19.4786 20.6502 19.1999 20.9299L17.7499 22.3799C16.1173 21.3438 14.6047 20.1297 13.2399 18.7599C11.873 17.3925 10.6592 15.8802 9.61992 14.2499L11.0699 12.7999C11.3496 12.5212 11.5715 12.19 11.7229 11.8254C11.8743 11.4607 11.9523 11.0697 11.9523 10.6749C11.9523 10.2801 11.8743 9.8891 11.7229 9.52444C11.5715 9.15979 11.3496 8.82861 11.0699 8.5499L8.23992 5.7299C7.96514 5.44929 7.63676 5.22679 7.27429 5.07562C6.91181 4.92444 6.52265 4.84768 6.12992 4.8499C5.7344 4.84893 5.34259 4.92618 4.97704 5.07721C4.61149 5.22823 4.27942 5.45005 3.99992 5.7299L2.63992 7.0799C1.99169 7.77687 1.50789 8.61025 1.22408 9.51877C0.940277 10.4273 0.863678 11.3879 0.999918 12.3299C1.31992 16.0799 3.77992 20.5899 7.56992 24.3899C11.3599 28.1899 15.9199 30.6399 19.6699 30.9999C19.9497 31.0149 20.2301 31.0149 20.5099 30.9999C21.3171 31.0338 22.123 30.9062 22.8803 30.6246C23.6375 30.343 24.331 29.913 24.9199 29.3599L26.2699 27.9999C26.5498 27.7204 26.7716 27.3883 26.9226 27.0228C27.0736 26.6572 27.1509 26.2654 27.1499 25.8699C27.1521 25.4772 27.0754 25.088 26.9242 24.7255C26.773 24.3631 26.5505 24.0347 26.2699 23.7599L23.4499 20.9299ZM24.8599 26.5899L23.4999 27.9399C22.9971 28.359 22.41 28.6651 21.7786 28.8377C21.1471 29.0102 20.486 29.0451 19.8399 28.9399C16.5899 28.6599 12.4499 26.3599 9.02991 22.9399C5.60992 19.5199 3.30992 15.4099 2.99992 12.1599C2.89208 11.5138 2.92563 10.852 3.09828 10.2202C3.27092 9.5883 3.57853 9.00139 3.99992 8.4999L5.40992 7.1399C5.50336 7.04722 5.61417 6.97389 5.73601 6.92413C5.85785 6.87436 5.98831 6.84914 6.11992 6.8499C6.25152 6.84914 6.38199 6.87436 6.50382 6.92413C6.62566 6.97389 6.73648 7.04722 6.82992 7.1399L9.65991 9.9999C9.84617 10.1873 9.95071 10.4407 9.95071 10.7049C9.95071 10.9691 9.84617 11.2225 9.65991 11.4099L7.65992 13.4099C7.50341 13.5656 7.40285 13.7688 7.37391 13.9877C7.34496 14.2065 7.38927 14.4288 7.49992 14.6199C8.69731 16.6583 10.1526 18.5338 11.8299 20.1999C13.496 21.8772 15.3715 23.3325 17.4099 24.5299C17.601 24.6405 17.8233 24.6849 18.0422 24.6559C18.261 24.627 18.4642 24.5264 18.6199 24.3699L20.6199 22.3699C20.8073 22.1837 21.0607 22.0791 21.3249 22.0791C21.5891 22.0791 21.8425 22.1837 22.0299 22.3699L24.8599 25.1999C24.9526 25.2933 25.0259 25.4042 25.0757 25.526C25.1254 25.6478 25.1507 25.7783 25.1499 25.9099C25.1436 26.1653 25.0399 26.4086 24.8599 26.5899Z" fill="#fff"/>
<path d="M26.6 5.39003C25.2103 3.995 23.5581 2.88887 21.7388 2.13541C19.9196 1.38196 17.9691 0.996078 16 1.00003C15.7348 1.00003 15.4804 1.10539 15.2929 1.29292C15.1054 1.48046 15 1.73481 15 2.00003C15 2.26525 15.1054 2.5196 15.2929 2.70714C15.4804 2.89467 15.7348 3.00003 16 3.00003C17.7165 2.99997 19.416 3.33983 21.0004 4.00001C22.5849 4.66019 24.0229 5.62761 25.2315 6.84645C26.4401 8.06529 27.3954 9.51141 28.0422 11.1014C28.689 12.6913 29.0145 14.3936 29 16.11C29 16.3752 29.1054 16.6296 29.2929 16.8171C29.4804 17.0047 29.7348 17.11 30 17.11C30.2652 17.11 30.5196 17.0047 30.7071 16.8171C30.8946 16.6296 31 16.3752 31 16.11C31.0192 14.12 30.6397 12.1462 29.884 10.3051C29.1283 8.46399 28.0117 6.79279 26.6 5.39003Z" fill="#fff"/>
<path d="M20.9099 11.1098C21.4774 11.6739 21.9264 12.3458 22.2304 13.086C22.5343 13.8262 22.6872 14.6197 22.6799 15.4198C22.6799 15.685 22.7853 15.9394 22.9728 16.1269C23.1603 16.3145 23.4147 16.4198 23.6799 16.4198C23.9451 16.4198 24.1995 16.3145 24.387 16.1269C24.5746 15.9394 24.6799 15.685 24.6799 15.4198C24.6932 14.3609 24.496 13.3098 24.0999 12.3276C23.7038 11.3455 23.1166 10.4517 22.3724 9.69821C21.6282 8.94472 20.7418 8.34649 19.7647 7.93821C18.7875 7.52993 17.739 7.31974 16.6799 7.31982C16.4147 7.31982 16.1604 7.42518 15.9728 7.61272C15.7853 7.80025 15.6799 8.05461 15.6799 8.31982C15.6799 8.58504 15.7853 8.83939 15.9728 9.02693C16.1604 9.21447 16.4147 9.31982 16.6799 9.31982C17.468 9.32576 18.2472 9.4869 18.973 9.79403C19.6988 10.1012 20.357 10.5483 20.9099 11.1098Z" fill="#fff"/>
</svg>
