<svg width="28" height="28" viewBox="0 0 28 28" fill="none" xmlns="http://www.w3.org/2000/svg">
<path fill-rule="evenodd" clip-rule="evenodd" d="M19.5667 11.1449C19.572 11.2683 19.5755 11.3916 19.5755 11.5167C19.5755 15.3116 16.6862 19.6884 11.403 19.6884C9.78075 19.6884 8.27137 19.2133 7 18.3986C7.22487 18.4249 7.45325 18.438 7.68512 18.438C9.03088 18.438 10.269 17.9795 11.2525 17.2086C9.99512 17.1859 8.93463 16.3555 8.56888 15.2145C8.74475 15.2478 8.92413 15.2652 9.10962 15.2652C9.37125 15.2652 9.625 15.2302 9.8665 15.1646C8.55225 14.9012 7.56262 13.7401 7.56262 12.3489V12.3121C7.94937 12.5274 8.393 12.6569 8.86375 12.6718C8.09288 12.1564 7.58537 11.277 7.58537 10.2812C7.58537 9.7545 7.72713 9.261 7.97475 8.83663C9.39138 10.5744 11.508 11.718 13.895 11.8379C13.846 11.6279 13.8206 11.4082 13.8206 11.1834C13.8206 9.597 15.1069 8.31075 16.6924 8.31075C17.5192 8.31075 18.2656 8.65987 18.7889 9.21812C19.4434 9.0895 20.0585 8.85063 20.6133 8.52163C20.3989 9.19188 19.943 9.7545 19.3506 10.1106C19.9316 10.0406 20.4846 9.88663 21 9.65825C20.615 10.234 20.1276 10.7398 19.5667 11.1449ZM14 0C6.26762 0 0 6.26762 0 14C0 21.7315 6.26762 28 14 28C21.7324 28 28 21.7315 28 14C28 6.26762 21.7324 0 14 0" fill="#ffffff"/>
</svg>
